<svg xmlns="http://www.w3.org/2000/svg" viewBox="0 0 453.705 453.705"><path d="M205.017 341.995l-32.166-32.161 110.691-110.701c40.217 21.676 91.214 15.992 125.209-17.947 41.406-41.462 41.406-108.687 0-150.091-41.458-41.46-108.688-41.46-150.149 0-33.937 33.941-39.593 84.999-17.931 125.157L22.751 374.216c-11.803 11.789-11.803 31.097 0 42.881 11.785 11.789 31.097 11.789 42.881 0l32.161 32.165c5.927 5.923 15.521 5.923 21.443 0l21.443-21.44c5.934-5.922 5.934-15.518 0-21.44l-32.163-32.165 21.44-21.506 32.177 32.226c5.923 5.923 15.521 5.923 21.443 0l21.441-21.44a15.233 15.233 0 0 0 0-21.502zM301.488 73.98c17.768-17.768 46.619-17.768 64.387 0 17.702 17.709 17.702 46.612 0 64.324-17.768 17.709-46.619 17.709-64.387 0-17.712-17.711-17.712-46.614 0-64.324z"/></svg>
