<svg xmlns="http://www.w3.org/2000/svg" viewBox="0 0 47.77 47.77"><path d="M39.354 23.699h-.006c-.057-4.646-1.136-4.554-1.266-4.712-.135-.163.781-4.294-1.792-4.48-3.604-.069-3.396-6.975-3.396-6.975H30.84a6.894 6.894 0 1 0-13.724 0h-2.24s.209 6.906-3.396 6.975c-2.574.186-1.658 4.317-1.792 4.48-.131.158-1.209.066-1.267 4.712h-.005l.002.186c.001.064-.001.119-.001.186h.005c.057 4.646 1.136 4.554 1.267 4.712.134.163-.781 4.294 1.792 4.479 3.605.069 3.396 6.975 3.396 6.975h2.054a6.895 6.895 0 1 0 13.757.639c0-.215-.014-.428-.033-.639h2.24s-.209-6.905 3.396-6.975c2.575-.186 1.658-4.316 1.792-4.479.13-.158 1.209-.066 1.267-4.712h.004l-.002-.187.002-.185zm-19.411 8.246l2.349-8.492a3.958 3.958 0 0 1 1.48-7.63 3.957 3.957 0 0 1 1.923 7.419l2.261 8.703h-8.013z"/></svg>
